<svg width="80" height="80" viewBox="0 0 16 16" fill="none" xmlns="http://www.w3.org/2000/svg">
<path fill-rule="evenodd" clip-rule="evenodd" d="M8 0C3.58789 0 0 3.5874 0 8C0 12.4126 3.58789 16 8 16C12.4121 16 16 12.4126 16 8C16 3.5874 12.4121 0 8 0ZM12.5938 12.5938C11.9971 13.1907 11.2998 13.6626 10.5254 13.9907C9.72461 14.3281 8.875 14.5 8 14.5C7.125 14.5 6.27539 14.3281 5.47461 13.9907C4.7002 13.6626 4.00586 13.1938 3.40625 12.5938C2.80664 11.9937 2.33789 11.3 2.00977 10.5249C1.67188 9.7251 1.5 8.875 1.5 8C1.5 7.125 1.67188 6.2749 2.00977 5.4751C2.33789 4.69995 2.80664 4.00635 3.40625 3.40625C4.00586 2.80615 4.7002 2.3374 5.47461 2.00928C6.27539 1.67188 7.125 1.5 8 1.5C8.875 1.5 9.72461 1.67188 10.5254 2.00928C11.0234 2.22021 11.4883 2.48926 11.916 2.81372C12.1533 2.99414 12.3799 3.19189 12.5938 3.40625C13.1934 4.00635 13.6621 4.69995 13.9902 5.4751C14.3281 6.2749 14.5 7.125 14.5 8C14.5 8.875 14.3281 9.7251 13.9902 10.5249C13.6621 11.3 13.1904 11.9937 12.5938 12.5938ZM11.5439 5.8623L9.42188 7.98438L11.5752 10.1375C11.9658 10.5281 11.9658 11.1624 11.5752 11.553C11.1846 11.9436 10.5498 11.9436 10.1592 11.553L8.00586 9.3999L5.88477 11.5217C5.49414 11.9124 4.85938 11.9124 4.46875 11.5217C4.07812 11.1311 4.07812 10.4968 4.46875 10.1062L6.59082 7.98438L4.46875 5.8623C4.07812 5.47168 4.07812 4.8374 4.46875 4.44678C4.85938 4.05615 5.49414 4.05615 5.88477 4.44678L8.00586 6.5686L10.1279 4.44678C10.29 4.28418 10.4951 4.18921 10.707 4.16187C11.0039 4.12378 11.3154 4.21875 11.5439 4.44678C11.9346 4.8374 11.9346 5.47168 11.5439 5.8623Z" fill="#FFFFFF"/>
</svg>
